<?xml version="1.0" encoding="UTF-8" standalone="no"?>
<!DOCTYPE svg PUBLIC "-//W3C//DTD SVG 1.1//EN" "http://www.w3.org/Graphics/SVG/1.1/DTD/svg11.dtd">
<svg width="100%" height="100%" viewBox="0 0 160 160" version="1.1" xmlns="http://www.w3.org/2000/svg" xmlns:xlink="http://www.w3.org/1999/xlink" xml:space="preserve" xmlns:serif="http://www.serif.com/" style="fill-rule:evenodd;clip-rule:evenodd;stroke-linejoin:round;stroke-miterlimit:2;">
    <g transform="matrix(1.30585,-0.599805,0.428515,0.932928,-67.4176,56.4454)">
        <ellipse cx="85.093" cy="90.668" rx="36.309" ry="57.709" style="fill:rgb(0,111,191);"/>
    </g>
    <g transform="matrix(1.09064,-0.500956,0.509023,1.1082,-48.4404,15.5769)">
        <path d="M73.302,54.939L89.389,63.853L89.389,81.681L73.302,90.595L57.215,81.681L57.215,63.853L73.302,54.939Z" style="fill:rgb(105,186,201);"/>
    </g>
    <g transform="matrix(1.09064,-0.500956,0.509023,1.1082,-20.4633,76.4866)">
        <path d="M73.302,54.939L89.389,63.853L89.389,81.681L73.302,90.595L57.215,81.681L57.215,63.853L73.302,54.939Z" style="fill:rgb(105,186,201);"/>
    </g>
    <g transform="matrix(1.09064,-0.500956,0.509023,1.1082,-13.7561,36.5765)">
        <path d="M73.302,54.939L89.389,63.853L89.389,81.681L73.302,90.595L57.215,81.681L57.215,63.853L73.302,54.939Z" style="fill:rgb(105,186,201);"/>
    </g>
    <g transform="matrix(1.09064,-0.500956,0.509023,1.1082,-55.0223,55.7598)">
        <path d="M73.302,54.939L89.389,63.853L89.389,81.681L73.302,90.595L57.215,81.681L57.215,63.853L73.302,54.939Z" style="fill:rgb(105,186,201);"/>
    </g>
    <g transform="matrix(0.709701,1.5451,-2.33335,1.07176,89.9462,-69.345)">
        <path d="M48.51,19.656C37.093,19.656 27.823,23.627 27.823,28.517C27.823,33.408 37.093,37.379 48.51,37.379C47.198,34.764 46.134,31.694 46.134,28.517C46.134,25.341 47.198,22.271 48.51,19.656Z" style="fill:rgb(0,111,191);"/>
    </g>
    <g transform="matrix(-0.735934,1.03826,-1.14912,-0.814515,278.678,-53.9962)">
        <path d="M138.263,49.621C129.595,49.621 122.558,53.974 122.558,59.337C122.558,64.7 129.595,69.054 138.263,69.054C137.395,66.139 136.69,62.789 136.69,59.337C136.69,55.885 137.395,52.535 138.263,49.621Z" style="fill:rgb(0,111,191);"/>
    </g>
    <g transform="matrix(1.26712,0.118209,-0.13083,1.40242,-139.159,-21.3742)">
        <path d="M138.263,49.621C129.595,49.621 122.558,53.974 122.558,59.337C122.558,64.7 129.595,69.054 138.263,69.054C137.395,66.139 136.69,62.789 136.69,59.337C136.69,55.885 137.395,52.535 138.263,49.621Z" style="fill:rgb(0,111,191);"/>
    </g>
    <g transform="matrix(0.735934,-1.03826,1.14912,0.814515,-113.707,234.274)">
        <path d="M138.263,49.621C129.595,49.621 122.558,53.974 122.558,59.337C122.558,64.7 129.595,69.054 138.263,69.054C137.395,66.139 136.69,62.789 136.69,59.337C136.69,55.885 137.395,52.535 138.263,49.621Z" style="fill:rgb(0,111,191);"/>
    </g>
    <g transform="matrix(-1.26712,-0.118209,0.13083,-1.40242,304.131,201.652)">
        <path d="M138.263,49.621C129.595,49.621 122.558,53.974 122.558,59.337C122.558,64.7 129.595,69.054 138.263,69.054C137.395,66.139 136.69,62.789 136.69,59.337C136.69,55.885 137.395,52.535 138.263,49.621Z" style="fill:rgb(0,111,191);"/>
    </g>
</svg>
